<?xml version="1.0" standalone="no"?>
<!DOCTYPE svg PUBLIC "-//W3C//DTD SVG 20010904//EN"
 "http://www.w3.org/TR/2001/REC-SVG-20010904/DTD/svg10.dtd">
<svg version="1.0" xmlns="http://www.w3.org/2000/svg"
 width="122.000000pt" height="122.000000pt" viewBox="0 0 122.000000 122.000000"
 preserveAspectRatio="xMidYMid meet">
<metadata>
Created by potrace 1.11, written by Peter Selinger 2001-2013
</metadata>
<g transform="translate(0.000000,122.000000) scale(0.100000,-0.100000)"
fill="#000000" stroke="none">
<path d="M460 1179 c-14 -4 -44 -13 -68 -19 -29 -7 -58 -27 -93 -61 -45 -45
-53 -49 -84 -43 -49 9 -95 -20 -95 -61 0 -16 -7 -38 -15 -49 -14 -18 -21 -53
-30 -146 -2 -25 -9 -70 -15 -100 -19 -108 -13 -178 27 -312 20 -66 36 -99 70
-140 24 -29 51 -65 59 -80 28 -54 121 -88 334 -122 32 -6 186 36 207 55 11 12
36 48 54 82 18 34 45 81 60 103 26 39 31 41 70 38 23 -2 49 -9 58 -17 9 -7 23
-13 31 -12 35 3 70 18 71 31 1 8 2 22 3 32 1 9 15 40 31 67 17 28 30 57 31 65
1 8 6 46 13 84 13 72 9 112 -16 160 -9 16 -17 43 -20 60 -6 45 -65 162 -117
231 -42 57 -48 61 -103 72 -32 7 -80 15 -106 17 -27 3 -54 9 -60 14 -10 8 -44
18 -87 27 -3 0 -23 7 -45 14 -46 16 -130 21 -165 10z"/>
</g>
</svg>
