<?xml version="1.0" encoding="utf-8"?>
<!-- Generator: Adobe Illustrator 24.1.1, SVG Export Plug-In . SVG Version: 6.00 Build 0)  -->
<svg version="1.1" id="Warstwa_1" xmlns="http://www.w3.org/2000/svg" xmlns:xlink="http://www.w3.org/1999/xlink" x="0px" y="0px"
	 viewBox="0 0 18.4 13.5" style="enable-background:new 0 0 18.4 13.5;" xml:space="preserve">
<style type="text/css">
	.st0{fill:#FFFFFF;}
</style>
<g>
	<g>
		<g>
			<circle class="st0" cx="14.1" cy="5.5" r="0.6"/>
		</g>
	</g>
	<g>
		<g>
			<circle class="st0" cx="14.1" cy="3.1" r="0.6"/>
		</g>
	</g>
	<g>
		<g>
			<circle class="st0" cx="15.3" cy="4.3" r="0.6"/>
		</g>
	</g>
	<g>
		<g>
			<circle class="st0" cx="12.9" cy="4.3" r="0.6"/>
		</g>
	</g>
	<g>
		<g>
			<path class="st0" d="M5.5,3.7H4.9V3.1c0-0.3-0.3-0.6-0.6-0.6S3.7,2.7,3.7,3.1v0.6H3.1c-0.3,0-0.6,0.3-0.6,0.6s0.3,0.6,0.6,0.6
				h0.6v0.6c0,0.3,0.3,0.6,0.6,0.6c0.3,0,0.6-0.3,0.6-0.6V4.9h0.6c0.3,0,0.6-0.3,0.6-0.6C6.1,3.9,5.9,3.7,5.5,3.7z"/>
		</g>
	</g>
	<path class="st0" d="M14.1,0H9.8L8.6,0H4.3C1.9,0,0,1.9,0,4.3v5.9c0,1.8,1.5,3.3,3.3,3.3c1.6,0,2.9-1.1,3.2-2.7l0.2-1
		c0.8,0,1.5-0.5,1.7-1.2h1.5c0.3,0.7,0.9,1.2,1.7,1.2l0.2,1c0.3,1.5,1.7,2.7,3.2,2.7c1.8,0,3.3-1.5,3.3-3.3V4.3
		C18.4,1.9,16.5,0,14.1,0z M6.7,8.6C6.4,8.6,6.1,8.3,6.1,8s0.3-0.6,0.6-0.6S7.4,7.6,7.4,8S7.1,8.6,6.7,8.6z M6.7,6.1
		C6,6.1,5.3,6.6,5,7.2C4.8,7.3,4.5,7.4,4.3,7.4C2.6,7.4,1.2,6,1.2,4.3c0-1.7,1.4-3.1,3.1-3.1c1.7,0,3.1,1.4,3.1,3.1
		C7.4,5,7.1,5.6,6.7,6.1z M11.6,8.6C11.3,8.6,11,8.3,11,8s0.3-0.6,0.6-0.6s0.6,0.3,0.6,0.6S12,8.6,11.6,8.6z M14.1,7.4
		c-0.3,0-0.5,0-0.8-0.1c-0.3-0.7-0.9-1.1-1.7-1.1C11.2,5.6,11,5,11,4.3c0-1.7,1.4-3.1,3.1-3.1c1.7,0,3.1,1.4,3.1,3.1
		C17.2,6,15.8,7.4,14.1,7.4z"/>
</g>
</svg>
