<?xml version="1.0" encoding="utf-8"?>
<!-- Generator: Adobe Illustrator 24.1.1, SVG Export Plug-In . SVG Version: 6.00 Build 0)  -->
<svg version="1.1" id="Warstwa_1" xmlns="http://www.w3.org/2000/svg" xmlns:xlink="http://www.w3.org/1999/xlink" x="0px" y="0px"
	 viewBox="0 0 1899 697" style="enable-background:new 0 0 1899 697;" xml:space="preserve">
<style type="text/css">
	.st0{fill:#FFFFFF;}
</style>
<g>
	<path class="st0" d="M464.9,14.4V685H363.4V225.1L268.5,685h-70.9l-94.8-459.8V685H3.2V14.4h143.7L235,442.6l84.3-428.2H464.9z"/>
	<path class="st0" d="M612.4,650c-30-29.7-45-68.8-45-117.4v-366c0-48.5,15-87.7,45-117.4c30-29.7,69.3-44.5,117.8-44.5
		c48.5,0,87.8,14.8,117.8,44.5c30,29.7,45,68.8,45,117.4v366c0,48.5-15,87.7-45,117.4c-30,29.7-69.3,44.5-117.8,44.5
		C681.7,694.5,642.5,679.7,612.4,650z M775.3,581.5c10.9-11.5,16.3-27.8,16.3-48.9v-366c0-21.1-5.4-37.4-16.3-48.9
		c-10.9-11.5-25.9-17.2-45-17.2s-34.2,5.7-45,17.2c-10.9,11.5-16.3,27.8-16.3,48.9v366c0,21.1,5.4,37.4,16.3,48.9
		c10.9,11.5,25.9,17.2,45,17.2S764.4,593,775.3,581.5z"/>
	<path class="st0" d="M1320.4,14.4L1209.3,685h-136L962.1,14.4h103.5l76.6,526.9l76.6-526.9H1320.4z"/>
	<path class="st0" d="M1399,14.4h101.5V685H1399V14.4z"/>
	<path class="st0" d="M1611.6,14.4H1900v95.8h-186.8V297h148.5v95.8h-148.5v196.4H1900V685h-288.4V14.4z"/>
</g>
</svg>
