<svg xmlns="http://www.w3.org/2000/svg" xmlns:xlink="http://www.w3.org/1999/xlink" width="48.294" height="48.294" viewBox="0 0 48.294 48.294">
  <defs>
    <filter id="film" x="0" y="0" width="48.294" height="48.294" filterUnits="userSpaceOnUse">
      <feOffset input="SourceAlpha"/>
      <feGaussianBlur stdDeviation="5" result="blur"/>
      <feFlood flood-color="#fff" flood-opacity="0.451"/>
      <feComposite operator="in" in2="blur"/>
      <feComposite in="SourceGraphic"/>
    </filter>
  </defs>
  <g transform="matrix(1, 0, 0, 1, 0, 0)" filter="url(#film)">
    <path id="film-2" data-name="film" d="M18.294,9.147a9.147,9.147,0,1,0-9.147,9.147h9.147V16.769H14.2A9.146,9.146,0,0,0,18.294,9.147Zm-4.667,6.167a2.287,2.287,0,1,1,.506-3.194A2.287,2.287,0,0,1,13.627,15.314Zm-.112-9.99A2.287,2.287,0,1,1,12.047,8.2a2.287,2.287,0,0,1,1.468-2.882Zm-4.368-3.8A2.287,2.287,0,1,1,6.86,3.811,2.287,2.287,0,0,1,9.147,1.524ZM1.9,6.791A2.287,2.287,0,1,1,3.366,9.673,2.287,2.287,0,0,1,1.9,6.791Zm5.963,8.016a2.287,2.287,0,1,1-.506-3.194,2.287,2.287,0,0,1,.506,3.194Zm.524-5.661a.762.762,0,1,1,.762.762A.762.762,0,0,1,8.385,9.147Zm0,0" transform="translate(15 15)" fill="#fff"/>
  </g>
</svg>
