<?xml version="1.0" encoding="utf-8"?>
<!-- Generator: Adobe Illustrator 24.1.1, SVG Export Plug-In . SVG Version: 6.00 Build 0)  -->
<svg version="1.1" id="Warstwa_1" xmlns="http://www.w3.org/2000/svg" xmlns:xlink="http://www.w3.org/1999/xlink" x="0px" y="0px"
	 viewBox="0 0 18.4 18.4" style="enable-background:new 0 0 18.4 18.4;" xml:space="preserve">
<style type="text/css">
	.st0{filter:url(#film);}
	.st1{fill:#FFFFFF;}
</style>
<filter  filterUnits="userSpaceOnUse" height="48.294" id="film" width="48.294" x="0" y="0">
	<feOffset  input="SourceAlpha"></feOffset>
	<feGaussianBlur  result="blur" stdDeviation="5"></feGaussianBlur>
	<feFlood  flood-color="#fff" flood-opacity="0.451"></feFlood>
	<feComposite  in2="blur" operator="in"></feComposite>
	<feComposite  in="SourceGraphic" operator="over"></feComposite>
</filter>
<g transform="matrix(1, 0, 0, 1, 0, 0)" class="st0">
	<path id="film-2_1_" class="st1" d="M18.3,9.1c0-5.1-4.1-9.1-9.1-9.1C4.1,0,0,4.1,0,9.1c0,5.1,4.1,9.1,9.1,9.1l0,0h9.1v-1.5h-4.1
		C16.8,15.1,18.3,12.2,18.3,9.1z M13.6,15.3c-1,0.7-2.5,0.5-3.2-0.5c-0.7-1-0.5-2.5,0.5-3.2c1-0.7,2.5-0.5,3.2,0.5c0,0,0,0,0,0
		C14.9,13.1,14.6,14.6,13.6,15.3z M13.5,5.3c1.2-0.4,2.5,0.3,2.9,1.5c0.4,1.2-0.3,2.5-1.5,2.9c-1.2,0.4-2.5-0.3-2.9-1.5c0,0,0,0,0,0
		C11.7,7,12.3,5.7,13.5,5.3C13.5,5.3,13.5,5.3,13.5,5.3L13.5,5.3z M9.1,1.5c1.3,0,2.3,1,2.3,2.3s-1,2.3-2.3,2.3s-2.3-1-2.3-2.3
		S7.9,1.5,9.1,1.5C9.1,1.5,9.1,1.5,9.1,1.5z M1.9,6.8c0.4-1.2,1.7-1.9,2.9-1.5S6.6,7,6.2,8.2c-0.4,1.2-1.7,1.9-2.9,1.5c0,0,0,0,0,0
		C2.2,9.3,1.5,8,1.9,6.8z M7.9,14.8c-0.7,1-2.2,1.2-3.2,0.5c-1-0.7-1.2-2.2-0.5-3.2s2.2-1.2,3.2-0.5c0,0,0,0,0,0
		C8.4,12.4,8.6,13.8,7.9,14.8z M8.4,9.1c0-0.4,0.3-0.8,0.8-0.8s0.8,0.3,0.8,0.8S9.6,9.9,9.1,9.9C8.7,9.9,8.4,9.6,8.4,9.1
		C8.4,9.1,8.4,9.1,8.4,9.1L8.4,9.1z"/>
</g>
</svg>
