<?xml version="1.0" encoding="utf-8"?>
<!-- Generator: Adobe Illustrator 24.1.1, SVG Export Plug-In . SVG Version: 6.00 Build 0)  -->
<svg version="1.1" id="Warstwa_1" xmlns="http://www.w3.org/2000/svg" xmlns:xlink="http://www.w3.org/1999/xlink" x="0px" y="0px"
	 viewBox="0 0 887 870" style="enable-background:new 0 0 887 870;" xml:space="preserve">
<style type="text/css">
	.st0{fill:#1EA0EF;}
</style>
<path class="st0" d="M820.93,868c-243.62,0-487.24,0-730.86,0c-0.34-1.63-0.74-3.24-1-4.88c-5.87-36.8-11.74-73.6-17.59-110.4
	c-4.8-30.18-9.62-60.37-14.39-90.55c-4.14-26.2-8.18-52.43-12.35-78.63c-4.16-26.18-8.45-52.33-12.65-78.5
	c-3.94-24.51-7.84-49.03-11.75-73.55c-0.23-1.43-1.03-3.24,0.33-4.2c4.73-3.34-0.42-4.61-1.52-4.94c-13.84-4.2-15.42-11.19-12-22.28
	c1.55-5.02,1.11-9.89-1.03-14.56c-1.56-3.4-1.29-6.57-0.26-10.04c2.53-8.45,7.92-15.04,13.38-21.64c0.67-0.81,1.33-1.6,2.46-0.94
	c3.35,1.95,3.31-0.57,3.25-2.59c-0.05-2.02,1.2-3.15,2.5-4.04c2.04-1.39,4.27-2.57,6.55-3.53c6.04-2.56,11.78-6,18.98-3.8
	c3.81,1.17,7.48,0.27,8.58-4.84c0.5-2.34,1.78-4.21,4.83-1.64c1.71,1.44,5.13,2.83,6.49-0.13c2.76-5.95,7.55-10.17,11.27-15.26
	c3.03-4.14,6.02-4.42,10.06-2.74c2.93,1.22,5.35,0.5,7.91-1.27c4.61-3.19,8.79-7.21,14.74-8.04c2.33-0.33,3.48-2.11,3.2-4.36
	c-1.36-10.85-0.15-22.02-4.44-32.51c-2.59-6.32-1.16-11.28,4.23-15.28c1.6-1.19,2.29-2.71,3.15-4.3
	c4.82-8.97,12.63-10.42,20.27-3.83c0.62,0.53,1.22,1.12,1.91,1.54c2.17,1.32,3.94,0.3,3.89-1.8c-0.05-2.24,0.84-4.18,0.94-6.34
	c0.48-9.7,1.52-11.05,10.67-13.74c2.04-0.6,4.14-2.71,3.1-3.39c-2.7-1.75-0.15-2.68,0.28-3c2.83-2.09,2.67-5.53,1.4-7.33
	c-5.43-7.76-3.7-15.73-1.23-23.58c2.28-7.25,2.24-16.37,12.33-18.61c0.56-0.12,1.03-0.83,1.45-1.34c2.1-2.5,4.88-2.85,7.97-3.28
	c5.96-0.83,10.92,2.27,16.38,3.29c8.8,1.64,16.57,5.08,21.72,12.93c4.83-7.16,4.83-7.16,4.91-14.71
	c0.09-8.73,1.55-10.91,10.02-13.76c4.63-1.56,7.3-4.76,8.89-9.11c1.59-4.36,11.08-9.41,14.67-7.34c2.24,1.29,4.21,1.07,6.54,1.11
	c10.68,0.21,16.56,1.07,20.04,11.45c0.35,1.04,0.87,1.83,1.92,2.01c1.4,0.23,2.24-0.69,2.52-1.89c0.33-1.4,1.01-2.92,2.24-3
	c6.65-0.42,4.58-4.72,3.04-7.68c-2.56-4.91-1.15-9.74-1-14.65c0.05-1.75,2-3.11,2.54-3.13c5.01-0.14,5.74-3.89,6.32-7.38
	c0.68-4.08,3.85-3.35,6.09-3.18c2.36,0.18,4.68,1.5,6.56,3.26c1.74,1.62,3.68,1.9,5.95,0.87c3.03-1.37,6.21-2.39,9.26-3.7
	c4.43-1.89,9.4-3.31,13.08-5.94c2.82-2.01,4.21-2.25,6.11-0.35c3.35,3.35,7.13,6.25,8.8,11.16c2.36,6.97,4.02,7.13,9.44,1.76
	c1.48-1.46,3.95-3.39,1.91-5.38c-3.12-3.04-1.14-4.6,0.96-6.38c2.06-1.74,3.33-4.47,6.76-4.49c1.42-0.01,2.61-2.17,1.95-3.53
	c-2.45-5.07,1.43-8.02,3.64-11.35c3.06-4.6,4.18-9.23,2.68-14.66c-1.08-3.88-2.3-7.65-4.18-11.2c-5.44-10.28-0.07-21.6,11.35-23.92
	c3.27-0.66,6.07,2.38,5.27,5.68c-0.76,3.15,0.33,4.62,3.55,3.33c2.62-1.05,5.25-0.63,7.85-0.5c4.49,0.23,11.1-2.62,11.82-6.64
	c1.42-8,9.86-9.99,12.95-16.45c0.63-1.33,2.86-1.65,4.91-0.87c2.77,1.06,5.96,1.72,8.52-0.32c2.26-1.81,4.54-3.03,7.39-3.66
	c3.16-0.71,4.8-3.41,4.21-6.4c-0.97-4.96-0.06-6.89,4.72-7.35c9.71-0.93,17.25,2.95,23.49,10.25c5.34,6.24,7.35,13.3,6.14,21.25
	c-0.95,6.26,3.77,10.01,6.65,14.15c1.55,2.22,5.07,4.52,9.34,4.68c5.81,0.21,11.32,3.26,15.05,7.68
	c6.11,7.25,12.89,13.34,21.51,17.4c1.81,0.85,3.08,1.71,4.75-0.17c1.79-2.01,3.04-0.72,3.45,1.16c1.17,5.32,7.61,7.59,7.74,13.53
	c0.01,0.46,1.58,1.08,2.49,1.28c3.08,0.65,4.16,2.87,4.98,5.56c0.8,2.64,0.23,6.18,2.74,7.75c4.54,2.84,4.96,7.17,5.39,11.66
	c0.13,1.36,0.42,2.47,2.07,1.66c4.42-2.17,9.24-4.21,12.24-8.02c2.13-2.7,3.88-3.3,6.98-3.13c5.7,0.3,11.5,1.34,16.68-2.83
	c1.88-1.51,4.65-1.21,6.35,1.66c1.59,2.67,4.42,3.83,7.3,4.86c7.52,2.7,13.52,7.55,18.71,13.53c1.57,1.8,2,4.56,0.41,5.31
	c-4.51,2.14-2.42,6.28-3.56,9.35c-1,2.69,0.89,3.64,3.24,3.09c5.45-1.27,10.63,0.45,15.58,1.9c4.27,1.25,8.11,4.51,8.66,9.39
	c0.61,5.4,2.98,6.12,7.57,4.54c6.79-2.34,12.44,2.42,18.67,3.59c1.54,0.29,2.5,2.54,3.22,4.27c3.21,7.73,7.7,14.46,14.78,19.24
	c2.27,1.53,2.73,3.7,2.3,6.51c-0.97,6.28-3.06,12.77,2.32,18.41c1.22,1.28,1.29,3.31-0.62,4.82c-2.06,1.64-2.99,4.8-1.09,6
	c3.46,2.18,5.63,6.99,11.7,4.8c7.56-2.72,10.38-0.61,12.77,7.16c0.35,1.15,0.31,2.19,1.62,2.67c5.11,1.87,8.22,6.37,10.65,10.46
	c3.85,6.47,6.03,13.93,9.01,20.94c0.62,1.46,1.06,2.83,0.24,4.27c-1.57,2.76-1.54,5.58-1.04,8.66c0.44,2.72,0.12,5.36-1.75,7.93
	c-2.7,3.71-4.71,7.93-7,11.94c-0.59,1.04-2.18,2.6,0.24,2.92c8.37,1.12,16.78,2.58,24.47-2.96c5.01-3.61,16.98,1.13,18.41,7.04
	c0.15,0.62,0.19,1.35,0.03,1.96c-1.26,4.63,0.79,8.31,3.46,11.72c1.24,1.58,3.11,3.25,2.75,5.04c-0.9,4.53,0.15,5.68,4.73,4.45
	c3.51-0.95,4.27,3.05,6.27,4.8c0.94,0.82-0.09,2.36-0.73,2.51c-3.66,0.81-3.8,4.81-6.36,6.66c-1.91,1.38-3.42,4.03-2.09,6.12
	c1.38,2.17,3.9,0.02,5.93-0.09c1.75-0.1,2.32-1.21,2.62-2.48c0.55-2.33,2.09-2.94,4.11-2.51c9.19,1.95,18.63,0.42,27.81,2.04
	c5.3,0.94,10.95,1.53,13.69,7.42c0.51,1.09,1.91,1.14,2.91,1.65c6.48,3.34,11.87,8.45,12.23,15.71c0.32,6.5,3.82,11.76,5.33,17.63
	c1.22,4.72,0.55,8.91,0.75,13.22c0.23,4.96-2.77,8.98-6.47,12.36c-2.25,2.06-4.16,4.49-6.93,7.53c2.95-0.05,4.93,0.27,6.88,1.06
	c1.67,0.68,1.89,1.33,1.65,2.86c-1.93,12.65-3.21,25.43-5.16,38.04c-2.76,17.79-4.79,35.67-7.24,53.48
	c-4.82,35.01-9.41,70.06-14.36,105.06c-3.86,27.28-7.2,54.64-10.95,81.94c-5.28,38.46-10.65,76.9-16.14,115.33
	C825.7,837.05,822.62,852.42,820.93,868z"/>
</svg>
